<svg xmlns="http://www.w3.org/2000/svg" width="655.36" height="655.36" viewBox="0 0 491.52 491.52"><path fill="#61b736" stroke="#000" stroke-linecap="round" stroke-miterlimit="1.92" stroke-width="4.8" d="M116.458 245.238c30.231-14.224 113.619-31.186 140.938-29.185 55.987 4.102 76.293 40.773 78.973 59.916 3.473 24.814-4.573 64.298-14.589 79.924-12.409 19.363-32.915 40.922-73.416 50.005-28.226 6.33-68.689-6.895-81.326-30.084-12.147-22.29-4.964-56.251 9.245-64.804 15.059-9.065 42.553-8.023 47.383 3.47 8.541 20.321-12.204 39.969 0 49.409 7.751 5.996 23.589 12.208 38.186-1.916 7.441-7.202 22.661-16.952 9.509-43.828-9.639-19.696-30.401-44.476-64.472-46.965-24.544-1.793-63.474 7.128-78.048 41.834-15.805 37.638-5.425 83.889 12.967 105.996 30.072 36.146 93.192 46.131 141.436 33.353 45.238-11.981 65.497-33.422 87.808-56.5 19.784-20.463 11.073 9.707 20.858.293 10.598-10.196 27.344-36.023 33.255-72.467 2.115-13.03 24.325 37.085 19.984-22.122-2.112-28.805-6.514-68.361.729-65.387 15.611 6.409 24.276 13.214 19.594-11.421-3.46-18.208-9.26-30.995-24.067-52.502-10.087-14.651-32.698-23.545-18.573-25.393 11.287-1.477 26.856 9.06 16.414-10.193-10.107-18.638-54.071-46.515-75.847-54.79-23.093-8.777-17.045-15.568 6.077-27.103 27.603-13.77-17.93-22.64-84.695-15.724-43.214 4.476-57.683 11.319-77.276 10.206-10.345-.588 2.054-23.689 14.458-35.013C251.314-12.55 165.126-.851 101.3 43.487c-52.453 36.44-85.422 80.954-91.137 117.537-6.637 42.488-26.332 110.332 17.663 112.893 19.087 1.111 35.6-3.728 88.632-28.679Z" transform="matrix(1 0 -.00125 1 17.48 15.031)"/><path fill="#fff" fill-rule="evenodd" stroke="#000" stroke-linecap="square" stroke-linejoin="bevel" stroke-width="4.8" d="M114.386 183.585c0-11.207-9.446-20.292-21.098-20.292s-21.098 9.085-21.098 20.292c0 11.206 9.206 20.645 20.858 20.645s21.338-9.439 21.338-20.645Z"/></svg>